PathFileType	4	(X/Y/Z)	 s11c0203.trc
DataRate	CameraRate	NumFrames	NumMarkers	Units	OrigDataRate	OrigDataStartFrame	OrigNumFrames
200	200	6	48	mm	200	251	2000
Frame#	Time	racr			lacr			c7			jug			rlel			rdr			llel			ldr			s2			lic			ric			lasi			rasi			rpsi			lpsi			rgt			lgt			rth1			rth2			rth3			rth4			rlfc			rmfc			rsh1			rsh2			rsh3			rsh4			rlmal			rcal			rtoe			rmt5			lth1			lth2			lth4			lth3			llfc			lmfc			llmal			lcal			lmt5			lsh1			lsh2			lsh3			lsh4			ltoe			SBIKE			LBIKE			RBIKE			
		X1	Y1	Z1	X2	Y2	Z2	X3	Y3	Z3	X4	Y4	Z4	X5	Y5	Z5	X6	Y6	Z6	X7	Y7	Z7	X8	Y8	Z8	X9	Y9	Z9	X10	Y10	Z10	X11	Y11	Z11	X12	Y12	Z12	X13	Y13	Z13	X14	Y14	Z14	X15	Y15	Z15	X16	Y16	Z16	X17	Y17	Z17	X18	Y18	Z18	X19	Y19	Z19	X20	Y20	Z20	X21	Y21	Z21	X22	Y22	Z22	X23	Y23	Z23	X24	Y24	Z24	X25	Y25	Z25	X26	Y26	Z26	X27	Y27	Z27	X28	Y28	Z28	X29	Y29	Z29	X30	Y30	Z30	X31	Y31	Z31	X32	Y32	Z32	X33	Y33	Z33	X34	Y34	Z34	X35	Y35	Z35	X36	Y36	Z36	X37	Y37	Z37	X38	Y38	Z38	X39	Y39	Z39	X40	Y40	Z40	X41	Y41	Z41	X42	Y42	Z42	X43	Y43	Z43	X44	Y44	Z44	X45	Y45	Z45	X46	Y46	Z46	X47	Y47	Z47	X48	Y48	Z48	
251	1.2550	421.589266	1414.816921	-86.240436	426.578186	1420.187923	-395.701100	334.698790	1533.971284	-244.760305	374.840166	1363.559994	-247.124489	563.021187	1180.769487	-26.171319	780.781833	964.403550	-51.295403	553.008112	1154.407876	-464.475712	795.687203	945.812008	-417.368503	-165.824903	1190.441370	-276.341376	63.264146	1222.656849	-457.312190	39.445021	1226.498230	-62.179762	105.474466	1154.831758	-419.865270	79.764994	1163.306682	-94.361062	-141.997396	1273.819257	-219.000792	-126.965559	1264.288411	-311.985352	-1.653660	1083.583516	-39.498238	-16.821261	1080.229656	-474.784354	115.693299	996.779979	-37.053594	199.318586	966.655830	-47.944251	254.718351	899.975800	-61.224684	218.328535	996.354240	-60.382869	340.108234	831.294348	-78.869169	348.753332	812.008005	-205.092151	320.112719	669.361644	-62.871432	334.530002	583.550934	-78.575220	304.996213	501.212668	-80.275104	360.478162	584.084073	-108.996392	283.515428	367.536788	-92.825001	225.910062	338.099852	-142.146519	512.648445	344.784331	-128.431299	445.092382	308.273529	-61.349627	98.434711	986.053802	-490.691449	177.009689	951.842489	-486.625044	200.546438	979.310853	-477.421905	229.714049	878.895134	-483.283749	320.971957	780.048930	-458.508293	336.478958	775.052348	-329.236159	10.755459	486.921009	-415.694899	-59.140111	466.773244	-376.211338	110.567448	349.090118	-446.685477	229.821884	695.386954	-470.665404	190.569636	621.563002	-452.503003	116.496256	573.814370	-442.796246	215.367389	603.368542	-428.288271	208.426965	335.844783	-379.610091	-206.364241	949.696517	-262.194686	1.122955	82.442419	-460.803549	-15.428832	81.039258	-62.412904	
252	1.2600	421.622819	1414.848953	-86.217756	426.513056	1420.148091	-395.666327	334.580644	1534.043510	-244.793907	374.767299	1363.623822	-247.095314	563.061826	1180.833363	-26.127421	780.771425	964.378016	-51.343938	552.932299	1154.326169	-464.443047	795.693416	945.820206	-417.349840	-165.882182	1190.436997	-276.261825	63.160741	1222.704084	-457.132336	39.369096	1226.513350	-62.080468	105.436854	1154.946408	-419.775016	79.710216	1163.369743	-94.299972	-142.066045	1273.804555	-218.877871	-127.023285	1264.289416	-311.887455	-1.656909	1083.595664	-39.456964	-16.881544	1080.274913	-474.719251	115.739439	996.880478	-37.051319	199.387946	966.845455	-47.901069	254.862713	900.207888	-61.158845	218.345131	996.535142	-60.351910	340.285983	831.632489	-78.794964	349.026879	812.287541	-205.038313	320.304743	669.667352	-62.789820	334.684267	583.856369	-78.541247	305.149619	501.475156	-80.268733	360.626165	584.348072	-108.955851	283.593505	367.853505	-92.830154	225.950688	338.378015	-142.129872	512.692744	344.980334	-128.455926	445.163576	308.488508	-61.360662	98.371435	986.059498	-490.672055	176.909804	951.811294	-486.605851	200.462633	979.223520	-477.377219	229.576986	878.803369	-483.240985	320.732727	779.928019	-458.489111	336.176643	774.854413	-329.278032	10.649064	486.650556	-415.738242	-59.238024	466.427520	-376.223482	110.506175	348.838446	-446.652855	229.629495	695.186741	-470.715933	190.402493	621.374992	-452.492693	116.309529	573.583501	-442.768071	215.210688	603.097323	-428.243762	208.384475	335.662749	-379.621185	-206.378060	949.687836	-262.191234	1.145829	82.488139	-460.839668	-15.440239	81.047316	-62.412565	
253	1.2650	421.650076	1414.922177	-86.132467	426.427844	1420.057977	-395.649773	334.484993	1534.092076	-244.784840	374.753558	1363.703154	-247.033568	563.112053	1180.883758	-26.145372	780.775080	964.363573	-51.369297	552.846366	1154.264010	-464.385874	795.715737	945.819865	-417.372092	-165.937548	1190.430747	-276.158157	63.117197	1222.779982	-456.984965	39.302909	1226.544745	-61.991432	105.388483	1155.035046	-419.613331	79.687356	1163.440151	-94.232939	-142.172649	1273.820641	-218.744885	-127.078391	1264.300231	-311.766922	-1.659706	1083.595611	-39.390274	-16.904218	1080.337638	-474.613415	115.773926	997.037237	-37.002714	199.445386	967.038497	-47.846831	254.985625	900.496134	-61.093329	218.414514	996.759922	-60.290298	340.461186	831.904827	-78.714412	349.313940	812.686375	-204.939507	320.461747	669.955225	-62.731228	334.812815	584.013185	-78.690149	305.284906	501.777743	-80.239208	360.145923	584.578474	-109.180448	283.682598	368.128440	-92.837612	226.073713	338.689544	-142.145958	512.757718	345.138741	-128.470323	445.220070	308.684754	-61.333256	98.308902	986.078876	-490.651366	176.833251	951.758527	-486.567552	200.391995	979.186467	-477.331182	229.436675	878.731440	-483.196965	320.486482	779.833067	-458.497950	335.812130	774.598895	-329.330149	10.532200	486.336455	-415.784799	-59.350343	466.077237	-376.227957	110.459340	348.618892	-446.625564	229.425694	694.981182	-470.735129	190.247283	621.186533	-452.520381	116.173837	573.353648	-442.771418	215.046148	602.914478	-428.225588	208.347374	335.433842	-379.585086	-206.381165	949.697250	-262.187700	1.128084	82.440235	-460.796073	-15.435975	81.047319	-62.412037	
254	1.2700	421.659562	1415.006112	-86.130961	426.365677	1419.959872	-395.618132	334.376384	1534.157369	-244.771373	374.660972	1363.734748	-246.969291	563.148710	1180.951151	-26.156133	780.773659	964.355559	-51.376005	552.785932	1154.173915	-464.312385	795.718671	945.825093	-417.413286	-165.988598	1190.432308	-276.069633	63.103840	1222.935617	-456.970973	39.246172	1226.602746	-61.881088	105.341175	1155.116417	-419.507975	79.667627	1163.521174	-94.157686	-142.283755	1273.825778	-218.569260	-127.157911	1264.310765	-311.652649	-1.689124	1083.598311	-39.344475	-16.967877	1080.418611	-474.546072	115.822441	997.189435	-36.984229	199.489521	967.214905	-47.801633	255.124616	900.754252	-61.043253	218.463347	996.988214	-60.232466	340.647721	832.200406	-78.621325	349.547327	813.076880	-204.787370	320.616231	670.201709	-62.697270	334.935126	584.298038	-78.628438	305.410124	502.097909	-80.198099	360.261004	584.799438	-109.134935	283.782170	368.481687	-92.824970	226.140145	339.228796	-142.180150	512.840616	345.343350	-128.476691	445.221583	309.010844	-61.336155	98.264307	986.104137	-490.646865	176.759825	951.731256	-486.525824	200.314148	979.129019	-477.286964	229.301704	878.650193	-483.137603	320.211749	779.672076	-458.500910	335.531971	774.455186	-329.377747	10.399833	486.055579	-415.813713	-59.452689	465.761661	-376.271237	110.373163	348.408599	-446.645031	229.251049	694.740565	-470.720303	190.096326	620.948510	-452.553918	116.034485	573.152271	-442.784568	214.865633	602.719803	-428.184091	208.311212	335.188583	-379.586991	-206.372109	949.695753	-262.179214	1.125768	82.427509	-460.798371	-15.441466	81.045084	-62.421642	
255	1.2750	421.675064	1415.079390	-86.095840	426.295641	1419.934094	-395.577746	334.260508	1534.194557	-244.773888	374.592738	1363.786229	-246.922784	563.182266	1181.004399	-26.189751	780.777054	964.356014	-51.376469	552.713433	1154.127102	-464.292627	795.747538	945.832214	-417.499659	-166.040201	1190.422208	-275.981638	63.028390	1222.993933	-456.786885	39.183402	1226.620545	-61.811942	105.299212	1155.201179	-419.424839	79.615540	1163.568186	-94.086827	-142.409663	1273.861260	-218.409849	-127.252571	1264.332252	-311.530462	-1.717002	1083.614367	-39.288360	-17.034559	1080.480994	-474.476645	115.845121	997.364189	-36.929510	199.574774	967.415083	-47.767018	255.258741	900.974301	-60.991936	218.512112	997.192906	-60.190752	340.858643	832.539778	-78.504010	349.747223	813.469337	-204.733661	320.787692	670.501051	-62.661963	335.063433	584.618193	-78.583595	305.497514	502.450502	-80.151731	360.451073	585.033713	-109.091387	283.878947	368.793301	-92.831574	226.168440	339.480385	-142.146806	512.943134	345.618350	-128.486268	445.285348	309.324137	-61.312188	98.209965	986.123120	-490.602878	176.669866	951.696239	-486.508782	200.247981	979.067806	-477.259940	229.153161	878.571950	-483.108679	319.927045	779.534000	-458.511797	335.162049	774.252100	-329.439968	10.241829	485.745147	-415.744379	-59.601363	465.430972	-376.289720	110.341617	348.130349	-446.659652	229.047153	694.516904	-470.728933	189.941196	620.766870	-452.578321	115.907818	572.901562	-442.851311	214.713027	602.523760	-428.158489	208.281184	334.952472	-379.582607	-206.370748	949.685026	-262.173278	1.123611	82.448802	-460.799666	-15.441184	81.048610	-62.410533	
256	1.2800	421.693797	1415.126799	-86.054039	426.204462	1419.865420	-395.554346	334.075811	1534.282873	-244.828920	374.511431	1363.825284	-246.826658	563.217057	1181.058076	-26.228242	780.790851	964.360195	-51.367074	552.637570	1154.053359	-464.254071	795.765500	945.827464	-417.551832	-166.097959	1190.424309	-275.879075	62.980812	1223.202341	-456.781517	39.106664	1226.618476	-61.716058	105.242490	1155.290471	-419.319970	79.586477	1163.617179	-94.017938	-142.525512	1273.845700	-218.267167	-127.338823	1264.355659	-311.387429	-1.737430	1083.634870	-39.223754	-17.080461	1080.551558	-474.388772	115.865633	997.496613	-36.901585	199.625910	967.701852	-47.729178	255.392052	901.248809	-60.942359	218.514988	997.481357	-60.147227	341.037599	832.882125	-78.408541	349.924544	813.762507	-204.591386	321.001355	670.817498	-62.614953	335.235563	584.981678	-78.522538	305.635095	502.761400	-80.087998	360.596932	585.353815	-109.040785	283.949731	369.117201	-92.836383	226.256516	339.875081	-142.152937	513.035534	345.851899	-128.470051	445.332531	309.646791	-61.287597	98.138230	986.156140	-490.613638	176.584339	951.646617	-486.465862	200.159652	979.016369	-477.216488	228.999031	878.481499	-483.059893	319.650971	779.371930	-458.509008	334.811492	774.022740	-329.503618	10.086974	485.483532	-415.741922	-59.732273	465.153803	-376.344665	110.296115	347.851354	-446.657853	228.811942	694.301936	-470.708424	189.791551	620.576666	-452.588005	115.759788	572.645918	-442.855116	214.524717	602.271571	-428.164829	208.228885	334.769929	-379.578449	-206.380460	949.681480	-262.158394	1.113220	82.450915	-460.816732	-15.440762	81.048903	-62.420313	
